<svg width="55" height="55" viewBox="0 0 55 55" fill="none" xmlns="http://www.w3.org/2000/svg">
<path d="M55 27.5C55 12.3105 42.6895 0 27.5 0C12.3105 0 0 12.3105 0 27.5C0 42.6895 12.3105 55 27.5 55C27.6611 55 27.8223 55 27.9834 54.9893V33.5908H22.0752V26.7051H27.9834V21.6348C27.9834 15.7588 31.5713 12.5576 36.8135 12.5576C39.3271 12.5576 41.4863 12.7402 42.1094 12.8262V18.9707H38.5C35.6533 18.9707 35.0947 20.3242 35.0947 22.3115V26.6943H41.916L41.0244 33.5801H35.0947V53.9365C46.5889 50.6387 55 40.0576 55 27.5Z" fill="black"/>
</svg>
