<svg width="110" height="80" viewBox="0 0 110 80" fill="none" xmlns="http://www.w3.org/2000/svg">
<path d="M49.4371 79.9349C56.0026 67.2261 49.68 51.8855 49.68 51.8855C59.7294 58.3947 60.8653 64.9021 60.8653 64.9021C59.3761 24.6224 42.4668 0 42.4668 0C68.0994 24.5239 72.1108 69.3442 72.1108 69.3442C73.4504 29.0346 94.4006 15.221 94.4006 15.221C83.9255 41.4355 88.6043 59.7581 88.6043 59.7581C99.9724 41.1523 110 40.3079 110 40.3079C94.8447 53.8382 94.4963 79.9965 94.4963 79.9965H49.4383L49.4371 79.9349Z" fill="black"/>
<path d="M14.9111 79.9349C18.0737 40 39.6936 15.2228 39.6936 15.2228C29.2185 41.4373 30.1177 67.9457 30.1177 67.9457C38.6816 43.5132 53.8366 41.0081 53.8366 41.0081C38.6791 54.5384 39.7905 80 39.7905 80H14.9111V79.9349Z" fill="black"/>
<path d="M13.7173 79.9718C12.4636 61.644 0 50.2722 0 50.2722C6.85867 69.7981 3.84704 80 3.84704 80H13.7173V79.9718Z" fill="black"/>
<path d="M98.5029 79.9753C99.5211 65.115 109.626 55.8948 109.626 55.8948C104.065 71.7245 106.506 79.9982 106.506 79.9982H98.5029V79.9753V79.9753Z" fill="black"/>
</svg>
