<svg width="90" height="80" viewBox="0 0 90 80" fill="none" xmlns="http://www.w3.org/2000/svg">
<path d="M58.9188 56.1608C42.6931 47.2454 40.2265 53.0865 32.9069 50.6055C24.6877 47.8198 23.5905 58.7885 39.202 60.3136C55.346 61.8907 31.5782 69.5865 21.6752 62.4443C2.11559 48.3377 -3.08242 55.369 3.39836 59.7755C9.75596 64.0983 12.7524 69.725 17.3915 72.3571C21.6752 74.7876 24.5025 75.5848 29.861 76.9881C42.6183 80.329 57.0901 80.7101 65.5573 76.7193C66.1439 76.4429 76.5609 71.3991 86.2357 66.7428C86.5243 66.6039 86.7678 66.3863 86.9381 66.115C87.1085 65.8437 87.1987 65.5298 87.1984 65.2095L87.1984 43.2598C87.199 43.1772 87.1805 43.0955 87.1443 43.0212C87.1081 42.9469 87.0552 42.8819 86.9897 42.8315C86.9241 42.7811 86.8478 42.7465 86.7667 42.7306C86.6856 42.7146 86.6019 42.7176 86.5222 42.7394C76.3017 45.7249 63.6703 58.7716 58.9188 56.1608Z" fill="black"/>
<path d="M17.767 23.6497C20.729 29.8894 25.8258 33.1393 28.9447 30.8485C30.6464 29.3171 31.7222 27.2108 31.9654 24.9344L31.9672 24.9337C34.6556 27.2917 37.146 29.8661 39.4135 32.6313H42.4864C28.9433 15.1559 13.5523 9.80168 13.5523 9.80168C20.4823 11.1301 31.1664 16.387 38.5691 22.6209L38.5701 22.6212C39.6623 22.5146 40.7117 22.1415 41.6261 21.5347C44.745 19.244 46.449 13.3799 38.9446 8.09581C24.5967 -2.0071 0 8.47168 0 8.47168C0 8.47168 9.85706 6.98656 17.767 23.6497Z" fill="black"/>
<path d="M80.6314 6.43301C80.6285 6.46542 67.6358 15.0338 58.2966 25.9735C58.0101 26.314 50.3106 35.3673 47.8549 43.8003L51.7143 45.9432C52.6091 42.239 54.0427 38.6863 55.9692 35.3984C56.1691 36.1874 56.5309 36.9261 57.0316 37.5677C59.8684 41.2968 67.5204 39.862 73.7887 34.6623C89.4629 21.6599 89.9998 0.466765 89.9998 0.466765C89.9998 0.466765 69.0996 -3.23343 53.4277 10.2024C47.2516 15.4972 43.6867 23.4885 46.9998 26.8017C47.6644 27.4558 48.4854 27.9288 49.3847 28.1756C50.284 28.4223 51.2315 28.4346 52.1368 28.2112C52.1368 28.2112 68.9998 9.80166 80.6314 6.43301Z" fill="black"/>
</svg>
