<svg width="80" height="80" viewBox="0 0 80 80" fill="none" xmlns="http://www.w3.org/2000/svg">
<path d="M72.3462 40.6775C71.0103 48.9096 55.8132 56.6758 62.8507 48.1156C69.6559 39.8377 63.8304 35.0722 61.2048 40.3876C58.8665 45.1215 54.6277 45.5849 49.4666 52.8529C46.0644 57.6439 45.1201 59.8045 45.3101 64.7304C45.3109 64.7484 45.331 73.719 43.7269 78.2474C43.51 78.8599 43.3583 80 44.1214 80H54.8995C56.3826 80 57.0433 79.8304 57.1341 79.3221C58.3339 72.6139 57.4407 68.9829 58.0393 68.7677C64.0564 66.6042 70.8636 59.429 75.4134 51.6533C77.3243 48.3873 78.3053 46.6366 79.2012 43.3939C80.1716 39.882 78.9026 34.0815 79.8869 28.9232C80.8902 23.6651 74.9846 24.4181 72.3462 40.6775Z" fill="black"/>
<path d="M34.6902 64.7304C34.8804 59.8045 33.9361 57.6439 30.5339 52.8529C25.3727 45.585 21.1339 45.1215 18.7957 40.3876C16.1702 35.0722 10.3444 39.8377 17.1496 48.1156C24.1871 56.6758 8.99009 48.9096 7.6542 40.6775C5.0158 24.4181 -0.889792 23.6651 0.113523 28.9232C1.09784 34.0815 -0.171144 39.882 0.799229 43.3939C1.69508 46.6366 2.67607 48.3873 4.58704 51.6534C9.13695 59.4291 15.944 66.6042 21.961 68.7677C22.5596 68.983 21.6666 72.614 22.8662 79.3221C22.9571 79.8305 23.6178 80 25.101 80H35.879C36.6422 80 36.4903 78.8599 36.2735 78.2475C34.6693 73.7191 34.6895 64.7485 34.6902 64.7304Z" fill="black"/>
<path d="M68 14.4516C68.002 11.0591 66.8097 7.77415 64.6321 5.17269C62.4546 2.57123 59.4308 0.819309 56.0909 0.224076C52.751 -0.371156 49.3082 0.228293 46.366 1.91733C43.4238 3.60636 41.1701 6.27717 40 9.46151C38.8299 6.27717 36.5761 3.60636 33.634 1.91733C30.6918 0.228293 27.2489 -0.371156 23.909 0.224076C20.5691 0.819309 17.5454 2.57123 15.3678 5.17269C13.1903 7.77415 11.998 11.0591 12 14.4516C12 40 40 52.3871 40 52.3871C40 52.3871 68 40 68 14.4516ZM51.1111 30.1618H43.9683V37.3047H36.0317V30.1618H28.8889V22.2253H36.0317V15.0825H43.9683V22.2253H51.1111V30.1618Z" fill="black"/>
</svg>
