<svg width="55" height="56" viewBox="0 0 55 56" fill="none" xmlns="http://www.w3.org/2000/svg">
<path d="M32.6629 27.7283C32.6629 30.6595 30.3136 33.0357 27.4155 33.0357C24.5173 33.0357 22.168 30.6595 22.168 27.7283C22.168 24.797 24.5173 22.4209 27.4155 22.4209C30.3136 22.4209 32.6629 24.797 32.6629 27.7283Z" fill="black"/>
<path d="M39.6871 18.3385C39.4349 17.6472 39.0324 17.0214 38.5095 16.5078C38.0017 15.9789 37.3834 15.5719 36.6994 15.3168C36.1447 15.0989 35.3114 14.8395 33.7766 14.7689C32.1162 14.6923 31.6184 14.6758 27.415 14.6758C23.2113 14.6758 22.7135 14.6919 21.0535 14.7684C19.5187 14.8395 18.685 15.0989 18.1307 15.3168C17.4467 15.5719 16.828 15.9789 16.3206 16.5078C15.7977 17.0214 15.3952 17.6468 15.1426 18.3385C14.9271 18.8995 14.6707 19.7428 14.6008 21.2951C14.5251 22.974 14.5088 23.4774 14.5088 27.7291C14.5088 31.9804 14.5251 32.4839 14.6008 34.1631C14.6707 35.7155 14.9271 36.5583 15.1426 37.1193C15.3952 37.8111 15.7972 38.4364 16.3201 38.95C16.828 39.4789 17.4463 39.8859 18.1303 40.1411C18.685 40.3594 19.5187 40.6187 21.0535 40.6894C22.7135 40.766 23.2108 40.782 27.4146 40.782C31.6188 40.782 32.1166 40.766 33.7761 40.6894C35.311 40.6187 36.1447 40.3594 36.6994 40.1411C38.0724 39.6054 39.1575 38.5079 39.6871 37.1193C39.9026 36.5583 40.159 35.7155 40.2293 34.1631C40.305 32.4839 40.3209 31.9804 40.3209 27.7291C40.3209 23.4774 40.305 22.974 40.2293 21.2951C40.1594 19.7428 39.903 18.8995 39.6871 18.3385ZM27.415 35.9046C22.9502 35.9046 19.3309 32.2444 19.3309 27.7287C19.3309 23.213 22.9502 19.5528 27.415 19.5528C31.8794 19.5528 35.4988 23.213 35.4988 27.7287C35.4988 32.2444 31.8794 35.9046 27.415 35.9046ZM35.8184 21.1403C34.7751 21.1403 33.9292 20.2848 33.9292 19.2296C33.9292 18.1744 34.7751 17.3189 35.8184 17.3189C36.8617 17.3189 37.7076 18.1744 37.7076 19.2296C37.7072 20.2848 36.8617 21.1403 35.8184 21.1403Z" fill="black"/>
<path d="M27.4155 0C12.2766 0 0 12.4166 0 27.728C0 43.0395 12.2766 55.4561 27.4155 55.4561C42.5543 55.4561 54.8309 43.0395 54.8309 27.728C54.8309 12.4166 42.5543 0 27.4155 0ZM43.063 34.2924C42.9868 35.9873 42.7204 37.1445 42.3313 38.1573C41.5135 40.2961 39.8418 41.9868 37.7272 42.8139C36.7261 43.2074 35.5816 43.4765 33.9062 43.5539C32.2275 43.6314 31.6912 43.65 27.4159 43.65C23.1402 43.65 22.6043 43.6314 20.9251 43.5539C19.2497 43.4765 18.1052 43.2074 17.1041 42.8139C16.0533 42.4141 15.102 41.7875 14.3156 40.9773C13.5149 40.1823 12.8953 39.2197 12.5 38.1573C12.111 37.1449 11.8445 35.9873 11.7684 34.2928C11.691 32.5945 11.673 32.0521 11.673 27.728C11.673 23.404 11.691 22.8616 11.7679 21.1637C11.8441 19.4688 12.1101 18.3116 12.4992 17.2987C12.8945 16.2363 13.5145 15.2738 14.3156 14.4788C15.1016 13.6685 16.0533 13.0419 17.1037 12.6421C18.1052 12.2486 19.2493 11.9795 20.9251 11.9021C22.6039 11.8247 23.1402 11.8061 27.4155 11.8061C31.6908 11.8061 32.227 11.8247 33.9058 11.9025C35.5816 11.9795 36.7257 12.2486 37.7272 12.6417C38.7776 13.0415 39.7293 13.6685 40.5158 14.4788C41.3164 15.2742 41.9364 16.2363 42.3313 17.2987C42.7208 18.3116 42.9868 19.4688 43.0634 21.1637C43.1399 22.8616 43.1579 23.404 43.1579 27.728C43.1579 32.0521 43.1399 32.5945 43.063 34.2924Z" fill="black"/>
</svg>
