<svg width="81" height="80" viewBox="0 0 81 80" fill="none" xmlns="http://www.w3.org/2000/svg">
<path d="M34 0H26H10H2C0.896 0 0 0.896 0 2C0 3.104 0.896 4 2 4H8V50C8 55.516 12.488 60 18 60C23.512 60 28 55.516 28 50V4H34C35.104 4 36 3.104 36 2C36 0.896 35.104 0 34 0Z" fill="black"/>
<path d="M67.9998 41.676V20H73.9998C75.1038 20 75.9998 19.104 75.9998 18C75.9998 16.896 75.1038 16 73.9998 16H65.9998H49.9998H41.9998C40.8958 16 39.9998 16.896 39.9998 18C39.9998 19.104 40.8958 20 41.9998 20H47.9998V41.676L36.1038 77.368C35.8998 77.976 36.0038 78.648 36.3758 79.168C36.7518 79.692 37.3558 80 37.9998 80H77.9998C78.6438 80 79.2478 79.692 79.6238 79.168C79.9998 78.648 80.1038 77.976 79.8958 77.368L67.9998 41.676Z" fill="black"/>
</svg>
