<svg width="80" height="90" viewBox="0 0 80 90" fill="none" xmlns="http://www.w3.org/2000/svg">
<path d="M79.9973 59.1382H44.3857V68.7264H79.9973V59.1382Z" fill="black"/>
<path d="M17.9705 -4.98254e-05L8.82812 8.32251L11.9104 11.1284L21.0528 2.80579L17.9705 -4.98254e-05Z" fill="black"/>
<path d="M61.5758 31.9336L43.9102 48.015L46.6398 50.4998L49.7994 47.6255L52.1707 49.7841L55.6633 46.6047L53.292 44.446L56.7742 41.2762L59.1454 43.4368L62.6381 40.2573L60.2647 38.0968L64.3054 34.4204L61.5758 31.9336Z" fill="black"/>
<path d="M66.1559 72.4351H70.3905V70.3954H52.3075V72.4351H56.5421V80.4058H50.5138C50.5138 80.4058 27.4985 80.4058 27.4985 62.7395C27.5503 58.3577 28.5508 54.0282 30.4428 49.9988C32.3348 45.9695 35.0811 42.3193 38.5245 39.2573L44.6372 44.8218L58.0766 32.5875L34.9644 11.5556L31.5919 14.6257L21.2636 5.22363L14.5861 11.3024L24.9144 20.7045L21.5419 23.7745L28.7653 30.3502C8.6863 36.6822 6.19065 57.5357 6.19065 57.5357V80.4058H0V89.9997H80V80.4058H66.1559V72.4351Z" fill="black"/>
</svg>
